{"glyphs":{":":{"x_min":0,"x_max":244,"ha":244,"o":"m 82 374 l 113 518 l 222 518 l 192 374 z m 3 0 l 34 144 l 143 144 l 112 0 z"},"$":{"x_min":0,"x_max":611,"ha":611,"o":"m 533 524 q 530 531 517 541 q 504 551 485 562 q 466 572 442 580 q 417 589 390 592 l 353 420 q 385 411 420 399 q 456 387 486 368 q 515 348 534 318 q 554 289 554 244 q 554 179 530 133 q 506 87 467 56 q 428 26 377 10 q 326 -5 272 -7 l 249 -117 l 190 -117 l 213 -6 q 147 -1 89 22 q 31 46 -12 84 l 74 203 q 78 195 94 182 q 109 169 132 156 q 156 144 186 133 q 216 122 249 118 l 285 289 l 250 300 q 212 312 184 326 q 155 340 136 358 q 116 376 106 399 q 96 422 96 453 q 96 511 118 557 q 140 603 177 636 q 214 670 263 690 q 312 709 366 714 l 388 815 l 447 815 l 425 714 q 487 709 536 686 q 584 664 617 636 z m 400 202 q 400 229 379 246 q 358 262 323 276 l 289 116 q 345 118 372 141 q 400 164 400 202 z m 247 499 q 247 474 264 459 q 282 444 316 432 l 350 593 q 299 589 273 564 q 247 538 247 499 z"},"?":{"x_min":0,"x_max":471,"ha":471,"o":"m 101 233 q 111 282 134 322 q 156 362 211 389 q 241 404 268 418 q 296 433 318 450 q 339 468 352 490 q 365 512 365 541 q 365 574 344 592 q 324 610 295 610 q 275 610 257 602 q 239 595 223 584 q 207 572 194 558 q 181 543 171 530 l 96 590 q 134 652 196 686 q 257 719 323 719 q 354 719 384 710 q 413 701 436 682 q 458 663 472 634 q 485 604 485 563 q 485 519 474 486 q 464 454 445 430 q 426 406 401 388 q 376 370 347 354 q 325 342 303 331 q 281 320 262 306 q 244 293 230 276 q 216 258 211 233 z m 54 0 l 83 138 l 193 138 l 164 0 z"},"<":{"x_min":0,"x_max":550,"ha":550,"o":"m 29 288 l 451 543 l 451 401 l 224 259 l 451 123 l 451 -27 l 29 223 z"},"'":{"x_min":0,"x_max":232,"ha":232,"o":"m 100 499 l 147 723 l 261 723 l 214 499 z"},"=":{"x_min":0,"x_max":485,"ha":485,"o":"m 80 144 l 80 231 l 393 231 l 393 144 z m 80 321 l 80 408 l 393 408 l 393 321 z"},"a":{"x_min":0,"x_max":624,"ha":624,"o":"m 201 -10 q 157 -10 122 6 q 88 23 64 52 q 40 81 28 120 q 15 160 15 205 q 15 270 38 330 q 62 389 102 434 q 141 479 193 506 q 245 533 302 533 q 356 533 394 505 q 432 477 446 432 l 466 522 l 600 522 l 522 154 q 519 143 519 136 q 519 115 543 114 l 519 0 q 501 -3 488 -5 q 474 -7 464 -7 q 429 -7 408 8 q 388 23 388 53 q 388 65 394 91 q 356 41 304 16 q 253 -10 201 -10 z m 261 104 q 278 104 298 110 q 317 117 335 129 q 353 141 369 157 q 385 173 396 192 l 422 317 q 416 361 387 390 q 358 419 320 419 q 288 419 258 402 q 228 386 206 358 q 183 331 170 296 q 156 262 156 226 q 156 174 184 139 q 212 104 261 104 z"},"L":{"x_min":0,"x_max":561,"ha":561,"o":"m 161 710 l 298 710 l 173 121 l 512 121 l 487 0 l 10 0 z"},"3":{"x_min":0,"x_max":538,"ha":538,"o":"m 155 -147 q 82 -147 32 -122 q -19 -98 -47 -51 l 48 44 q 65 11 95 -7 q 125 -25 175 -25 q 244 -25 280 6 q 315 38 315 96 q 315 137 286 159 q 257 181 196 181 l 169 181 l 190 281 l 220 281 q 285 281 324 314 q 364 347 364 396 q 364 428 343 444 q 322 460 287 460 q 245 460 206 439 q 168 418 138 380 l 74 474 q 93 497 122 516 q 150 534 183 548 q 216 561 252 568 q 289 576 326 576 q 414 576 464 536 q 513 496 513 429 q 513 395 500 363 q 487 331 466 304 q 444 278 415 260 q 386 242 353 236 q 401 227 427 189 q 453 151 453 96 q 453 42 431 -2 q 409 -47 370 -80 q 330 -112 275 -130 q 220 -147 155 -147 z"},";":{"x_min":0,"x_max":247,"ha":247,"o":"m 83 374 l 113 518 l 223 518 l 192 374 z m -7 -115 l 45 4 l 3 4 l 33 144 l 149 144 l 119 4 l 53 -115 z"},"J":{"x_min":0,"x_max":479,"ha":479,"o":"m 94 -11 q 9 -11 -43 33 l 11 145 q 21 135 50 123 q 79 111 120 111 q 159 111 185 126 q 211 140 229 170 q 247 200 260 244 q 273 289 286 349 l 363 709 l 501 709 l 424 349 q 407 268 385 202 q 363 135 326 88 q 290 41 234 15 q 178 -11 94 -11 z"},"V":{"x_min":0,"x_max":646,"ha":646,"o":"m 86 710 l 231 710 l 293 173 l 581 710 l 726 710 l 314 0 l 198 0 z"},"\"":{"x_min":0,"x_max":387,"ha":387,"o":"m 100 499 l 147 723 l 261 723 l 214 499 z m 255 499 l 303 723 l 417 723 l 369 499 z"},"7":{"x_min":0,"x_max":546,"ha":546,"o":"m 361 461 l 61 461 l 87 583 l 599 583 l 113 -127 l -39 -127 z"},"S":{"x_min":0,"x_max":592,"ha":592,"o":"m 243 -8 q 168 -8 98 16 q 29 40 -21 84 l 65 203 q 70 194 88 180 q 107 165 134 150 q 162 136 198 126 q 233 116 272 116 q 332 116 362 140 q 391 163 391 202 q 391 221 380 235 q 368 249 348 260 q 328 271 300 280 q 273 290 240 300 q 165 323 126 358 q 87 392 87 453 q 87 515 112 564 q 137 612 178 646 q 220 680 274 698 q 329 715 388 715 q 459 715 514 692 q 570 668 608 636 l 523 524 q 519 531 504 543 q 489 555 466 566 q 444 578 416 586 q 388 594 358 594 q 298 594 268 568 q 238 542 238 499 q 238 482 246 470 q 255 457 272 448 q 289 438 313 430 q 337 422 369 413 q 409 402 442 388 q 474 374 497 354 q 520 335 532 308 q 545 281 545 244 q 545 177 519 129 q 493 81 451 50 q 409 20 354 6 q 300 -8 243 -8 z"},"}":{"x_min":0,"x_max":309,"ha":309,"o":"m 118 633 l 141 740 l 291 740 q 296 740 302 736 q 308 732 308 719 q 308 713 307 710 l 256 473 q 255 470 255 466 q 255 463 255 460 q 255 440 265 424 q 275 408 292 408 l 271 314 q 251 310 232 292 q 214 273 208 247 l 156 -1 q 152 -19 142 -25 q 133 -31 127 -31 l -23 -31 l -1 76 l 52 76 l 97 291 q 102 311 115 328 q 128 346 145 360 q 137 371 131 384 q 125 397 125 412 q 125 419 127 429 l 171 633 z"},"Z":{"x_min":0,"x_max":597,"ha":597,"o":"m -13 104 l 463 589 l 102 589 l 127 710 l 648 710 l 626 606 l 163 121 l 525 121 l 500 0 l -35 0 z"},"x":{"x_min":0,"x_max":511,"ha":511,"o":"m 175 261 l 55 524 l 192 524 l 259 360 l 264 342 l 276 360 l 415 524 l 552 524 l 320 261 l 443 0 l 305 0 l 235 163 l 230 180 l 218 163 l 78 0 l -60 0 z"},")":{"x_min":0,"x_max":304,"ha":304,"o":"m 289 431 q 289 365 270 302 q 250 239 217 179 q 184 119 141 61 q 98 3 50 -53 l -37 -4 q 6 52 42 105 q 79 158 106 210 q 133 262 148 315 q 163 368 163 424 q 163 466 158 510 q 152 553 144 592 q 137 632 128 664 q 119 696 112 714 l 224 757 q 252 678 270 594 q 289 509 289 431 z"},"&":{"x_min":0,"x_max":697,"ha":697,"o":"m 399 67 q 351 29 299 10 q 247 -10 196 -10 q 152 -10 118 4 q 85 18 62 42 q 39 65 27 96 q 15 128 15 164 q 15 204 28 236 q 42 269 65 296 q 88 323 118 346 q 148 368 182 389 q 156 429 145 460 q 134 490 134 522 q 134 564 152 600 q 170 637 201 663 q 232 689 272 704 q 312 719 356 719 q 416 719 463 687 q 510 655 528 592 l 435 540 q 424 578 398 599 q 373 620 344 620 q 327 620 312 614 q 297 608 285 598 q 273 588 266 574 q 259 560 259 544 q 259 524 273 499 q 287 474 321 425 l 438 255 q 456 290 470 330 q 483 370 491 416 l 671 416 l 656 320 l 575 320 q 560 277 540 240 q 520 202 497 170 l 616 0 l 445 0 z m 231 93 q 290 93 349 141 l 239 303 q 191 274 168 246 q 145 217 145 179 q 145 137 170 115 q 195 93 231 93 z"},"_":{"x_min":0,"x_max":456,"ha":456,"o":"m -35 -121 l -10 0 l 337 0 l 311 -121 z"},"v":{"x_min":0,"x_max":526,"ha":526,"o":"m 50 524 l 189 524 l 221 109 q 257 164 286 215 q 316 266 340 316 q 365 367 384 418 q 404 468 420 524 l 543 524 q 507 393 434 262 q 362 131 260 0 l 120 0 z"},"O":{"x_min":0,"x_max":729,"ha":729,"o":"m 299 -5 q 236 -5 187 20 q 138 44 104 85 q 71 126 54 179 q 37 232 37 290 q 37 371 72 448 q 106 524 164 584 q 222 643 298 679 q 373 715 455 715 q 518 715 566 690 q 615 665 648 624 q 680 583 697 529 q 714 475 714 418 q 714 338 680 262 q 646 185 588 126 q 531 67 456 31 q 381 -5 299 -5 z m 326 117 q 381 117 426 144 q 472 171 505 213 q 538 255 556 306 q 574 358 574 408 q 574 445 565 478 q 556 512 538 537 q 519 562 491 577 q 463 592 426 592 q 371 592 325 566 q 279 539 246 497 q 213 455 195 404 q 177 352 177 301 q 177 264 186 231 q 195 198 214 172 q 233 147 260 132 q 288 117 326 117 z"},"(":{"x_min":0,"x_max":304,"ha":304,"o":"m 35 263 q 35 329 54 390 q 72 451 104 512 q 137 572 180 632 q 224 693 274 757 l 367 714 q 328 663 290 608 q 253 552 224 495 q 196 438 178 381 q 161 324 161 271 q 161 209 175 136 q 189 64 212 -4 l 103 -53 q 88 -18 76 21 q 63 60 54 101 q 45 142 40 183 q 35 224 35 263 z"},"C":{"x_min":0,"x_max":658,"ha":658,"o":"m 296 -6 q 234 -6 186 20 q 138 45 105 87 q 72 129 54 184 q 37 238 37 296 q 37 345 51 395 q 65 445 92 492 q 118 538 156 578 q 193 619 240 649 q 286 679 340 696 q 394 714 454 714 q 548 714 608 671 q 667 628 685 559 l 564 486 q 558 516 544 536 q 530 557 510 569 q 491 581 468 586 q 446 592 424 592 q 368 592 322 565 q 276 538 244 496 q 212 454 194 403 q 177 352 177 304 q 177 266 187 232 q 197 198 216 172 q 235 146 262 131 q 290 116 326 116 q 348 116 374 122 q 399 128 424 141 q 448 154 470 174 q 493 195 511 224 l 610 159 q 586 119 550 88 q 513 58 470 37 q 428 16 382 5 q 337 -6 296 -6 z"},"W":{"x_min":0,"x_max":1002,"ha":1002,"o":"m 82 710 l 231 710 l 299 158 l 427 385 l 383 708 l 510 708 l 534 473 l 657 708 l 785 708 l 602 385 l 635 158 l 937 710 l 1087 710 l 663 0 l 548 0 l 497 298 l 319 0 l 204 0 z"},"A":{"x_min":0,"x_max":645,"ha":645,"o":"m 352 710 l 475 710 l 578 0 l 436 0 l 414 177 l 185 177 l 89 0 l -53 0 z m 411 274 l 380 553 l 228 274 z"},"f":{"x_min":0,"x_max":361,"ha":361,"o":"m 108 394 l 44 394 l 66 496 l 130 496 l 137 528 q 147 577 167 616 q 187 655 215 682 q 243 710 278 725 q 312 740 350 740 q 411 740 468 709 l 421 608 q 408 616 390 622 q 372 627 356 627 q 292 627 272 533 l 264 496 l 384 496 l 362 394 l 242 394 l 113 -212 l -21 -212 z"},"Q":{"x_min":0,"x_max":728,"ha":728,"o":"m 478 42 q 436 19 391 7 q 346 -5 298 -5 q 235 -5 186 20 q 137 44 104 85 q 71 126 54 179 q 36 232 36 290 q 36 371 70 448 q 105 524 163 584 q 221 643 296 679 q 372 715 454 715 q 517 715 566 690 q 614 665 647 624 q 680 583 697 529 q 714 475 714 418 q 714 330 674 248 q 634 166 567 106 l 637 0 l 506 0 z m 326 117 q 350 117 372 122 q 395 128 416 138 l 335 263 l 465 263 l 501 207 q 536 250 555 303 q 574 356 574 408 q 574 445 564 478 q 555 512 536 538 q 518 563 490 578 q 463 593 426 593 q 371 593 325 566 q 279 540 246 498 q 213 456 195 404 q 177 352 177 301 q 177 264 186 231 q 195 198 214 172 q 233 147 260 132 q 288 117 326 117 z"},"w":{"x_min":0,"x_max":790,"ha":790,"o":"m 42 524 l 173 524 l 236 120 q 245 131 257 150 q 269 170 281 191 q 293 212 304 232 q 316 251 323 262 l 267 524 l 384 524 l 410 362 q 416 373 426 396 q 437 418 448 442 q 459 467 468 490 q 477 512 480 524 l 589 524 q 565 453 534 390 q 504 327 462 263 l 488 143 q 528 197 559 243 q 590 289 614 334 q 638 378 658 424 q 677 470 696 524 l 819 524 q 774 393 694 262 q 615 131 504 0 l 403 0 l 374 171 q 367 161 352 136 q 337 112 320 85 q 304 58 288 34 q 273 10 265 0 l 143 0 z"},"-":{"x_min":0,"x_max":402,"ha":402,"o":"m 38 214 l 64 335 l 353 335 l 327 214 z"},"E":{"x_min":0,"x_max":578,"ha":578,"o":"m 161 710 l 621 710 l 596 589 l 272 589 l 236 418 l 515 418 l 491 306 l 212 306 l 173 121 l 505 121 l 479 0 l 10 0 z"},"s":{"x_min":0,"x_max":480,"ha":480,"o":"m 184 -10 q 121 -10 65 11 q 9 32 -25 71 l 42 155 q 119 86 201 86 q 243 86 267 104 q 291 122 291 154 q 291 176 270 188 q 248 201 200 215 q 160 227 132 238 q 103 250 84 264 q 66 278 58 296 q 49 313 49 336 q 49 380 68 416 q 87 453 120 479 q 152 505 195 520 q 238 534 286 534 q 342 534 387 517 q 432 500 467 462 l 396 381 q 364 411 332 425 q 299 439 265 439 q 230 439 204 422 q 179 405 179 370 q 179 349 198 338 q 217 327 262 314 q 346 291 386 262 q 426 234 426 184 q 426 141 408 106 q 390 70 358 44 q 326 19 282 4 q 237 -10 184 -10 z"},">":{"x_min":0,"x_max":550,"ha":550,"o":"m 502 223 l 80 -27 l 80 123 l 307 259 l 80 401 l 80 543 l 502 288 z"},"l":{"x_min":0,"x_max":309,"ha":309,"o":"m 121 -8 q 70 -8 43 16 q 16 39 16 83 q 16 92 17 101 q 18 110 20 121 l 150 730 l 283 730 l 164 168 q 163 163 162 158 q 162 153 162 148 q 162 107 203 107 q 214 107 228 111 q 243 115 256 121 l 252 19 q 223 6 186 -1 q 150 -8 121 -8 z"},"8":{"x_min":0,"x_max":583,"ha":583,"o":"m 224 -9 q 180 -9 142 4 q 105 18 78 43 q 51 68 36 102 q 21 136 21 177 q 21 216 34 248 q 48 280 69 306 q 90 331 116 350 q 141 368 164 380 q 138 394 122 424 q 107 453 107 488 q 107 540 133 582 q 159 623 199 652 q 239 680 286 695 q 334 710 377 710 q 412 710 446 700 q 480 689 507 668 q 534 647 550 616 q 567 586 567 546 q 567 517 557 492 q 547 466 530 444 q 514 423 493 406 q 472 390 450 380 q 479 362 500 326 q 522 290 522 242 q 522 187 497 141 q 472 95 430 62 q 388 28 334 10 q 281 -9 224 -9 z m 251 112 q 275 112 300 122 q 324 131 343 148 q 362 165 374 188 q 386 211 386 238 q 386 279 360 302 q 333 324 295 324 q 270 324 246 314 q 222 305 203 288 q 184 272 172 249 q 161 226 161 199 q 161 160 188 136 q 214 112 251 112 z m 317 425 q 335 425 354 432 q 374 438 390 451 q 406 464 416 482 q 427 500 427 524 q 427 555 406 573 q 384 591 352 591 q 331 591 312 584 q 292 577 277 564 q 262 551 252 533 q 243 515 243 494 q 243 460 266 442 q 289 425 317 425 z"},"\\":{"x_min":0,"x_max":604,"ha":604,"o":"m 256 710 l 518 0 l 370 0 l 107 710 z"},"e":{"x_min":0,"x_max":551,"ha":551,"o":"m 230 -10 q 180 -10 140 6 q 101 23 73 52 q 45 82 30 122 q 16 163 16 211 q 16 276 42 334 q 67 393 112 437 q 156 481 216 507 q 277 533 347 533 q 432 533 482 496 q 533 458 533 387 q 533 218 231 218 q 213 218 194 218 q 175 218 154 220 l 154 207 q 154 154 178 121 q 202 88 254 88 q 294 88 330 107 q 365 126 386 160 l 492 127 q 472 97 443 72 q 414 46 380 28 q 345 10 307 0 q 269 -10 230 -10 z m 327 436 q 298 436 273 426 q 248 415 228 397 q 209 379 194 355 q 179 331 170 304 q 186 303 201 303 q 216 303 232 303 q 280 303 314 308 q 347 313 368 323 q 388 333 397 346 q 406 360 406 378 q 406 407 384 422 q 362 436 327 436 z"},"b":{"x_min":0,"x_max":612,"ha":612,"o":"m 282 -10 q 223 -10 185 17 q 147 44 132 91 l 113 0 l -4 0 l 151 730 l 285 730 l 221 432 q 256 478 306 506 q 355 533 409 533 q 451 533 482 516 q 514 500 536 471 q 558 442 569 404 q 580 365 580 321 q 580 253 555 193 q 530 133 488 88 q 447 43 393 16 q 339 -10 282 -10 z m 272 104 q 304 104 334 120 q 364 135 388 162 q 411 188 425 222 q 439 257 439 295 q 439 320 432 342 q 426 365 414 382 q 402 399 384 409 q 366 419 343 419 q 302 419 262 390 q 223 360 197 317 l 170 192 q 176 154 204 129 q 231 104 272 104 z"},"%":{"x_min":0,"x_max":760,"ha":760,"o":"m 219 417 q 190 417 166 426 q 142 436 125 453 q 108 470 98 493 q 89 516 89 543 q 89 579 106 611 q 122 643 149 668 q 176 692 211 706 q 246 720 283 720 q 312 720 336 710 q 359 701 376 684 q 393 667 402 644 q 412 621 412 594 q 412 558 396 526 q 380 494 353 470 q 326 445 291 431 q 256 417 219 417 z m 233 484 q 248 484 264 492 q 279 501 291 516 q 303 530 310 548 q 318 567 318 587 q 318 615 304 634 q 291 653 269 653 q 254 653 238 644 q 223 636 211 622 q 199 607 192 588 q 184 570 184 550 q 184 522 197 503 q 210 484 233 484 z m 500 -10 q 471 -10 448 0 q 424 9 407 26 q 390 43 380 66 q 371 89 371 116 q 371 152 387 184 q 403 216 430 240 q 457 265 492 279 q 527 293 564 293 q 593 293 617 284 q 641 274 658 257 q 675 240 684 217 q 693 194 693 167 q 693 131 677 99 q 661 67 634 42 q 607 18 572 4 q 537 -10 500 -10 z m 514 57 q 530 57 545 66 q 560 74 572 88 q 584 102 592 121 q 599 140 599 160 q 599 188 586 207 q 572 226 550 226 q 535 226 520 218 q 504 209 492 194 q 479 180 472 162 q 464 143 464 123 q 464 95 478 76 q 492 57 514 57 z m 39 47 l 376 376 l 695 718 l 744 664 l 415 340 l 88 -7 z"},"m":{"x_min":0,"x_max":892,"ha":892,"o":"m 107 524 l 228 524 l 207 427 q 245 477 300 505 q 354 533 411 533 q 473 533 501 502 q 529 472 531 422 q 573 476 626 504 q 679 533 736 533 q 770 533 792 524 q 815 514 828 498 q 842 481 848 459 q 853 437 853 411 q 853 395 851 374 q 849 354 843 327 l 773 0 l 639 0 l 701 294 q 704 309 706 322 q 708 336 708 347 q 708 382 694 398 q 679 415 654 415 q 617 415 578 384 q 540 353 516 305 l 452 0 l 318 0 l 380 294 q 386 325 386 348 q 386 383 372 399 q 358 415 332 415 q 314 415 295 407 q 276 399 258 384 q 239 370 223 350 q 207 330 195 306 l 130 0 l -4 0 z"},"#":{"x_min":0,"x_max":692,"ha":692,"o":"m 682 424 l 543 424 l 484 287 l 608 287 l 587 187 l 439 187 l 356 0 l 249 0 l 332 187 l 226 187 l 143 0 l 35 0 l 118 187 l 12 187 l 33 287 l 164 287 l 222 424 l 107 424 l 128 518 l 266 518 l 351 710 l 458 710 l 373 518 l 479 518 l 564 710 l 672 710 l 586 518 l 703 518 z m 377 287 l 436 424 l 330 424 l 272 287 z"},",":{"x_min":0,"x_max":230,"ha":230,"o":"m -16 -115 l 37 4 l -5 4 l 25 144 l 140 144 l 110 4 l 45 -115 z"},"n":{"x_min":0,"x_max":582,"ha":582,"o":"m 107 524 l 228 524 l 207 427 q 245 477 303 505 q 361 533 426 533 q 460 533 482 524 q 505 514 518 498 q 532 482 538 460 q 543 437 543 412 q 543 392 540 370 q 538 349 533 327 l 464 0 l 330 0 l 392 294 q 395 309 397 322 q 399 336 399 347 q 399 382 384 398 q 368 415 342 415 q 324 415 303 407 q 282 399 262 384 q 242 370 224 350 q 207 330 195 306 l 130 0 l -4 0 z"},"h":{"x_min":0,"x_max":582,"ha":582,"o":"m 151 730 l 285 730 l 220 427 q 259 478 311 506 q 363 533 420 533 q 455 533 478 524 q 502 514 516 498 q 531 481 537 458 q 543 436 543 410 q 543 390 540 369 q 538 348 533 327 l 464 0 l 330 0 l 392 294 q 398 322 398 343 q 398 415 337 415 q 321 415 301 407 q 281 399 262 384 q 242 370 224 350 q 207 330 195 306 l 130 0 l -4 0 z"},"z":{"x_min":0,"x_max":471,"ha":471,"o":"m -21 82 l 321 430 l 65 430 l 85 524 l 485 524 l 467 442 l 126 94 l 398 94 l 378 0 l -38 0 z"},"B":{"x_min":0,"x_max":656,"ha":656,"o":"m 161 710 l 525 710 q 555 710 578 698 q 600 685 615 665 q 630 645 638 619 q 645 593 645 565 q 645 534 636 504 q 626 474 608 447 q 590 420 564 398 q 539 377 508 364 q 553 349 577 312 q 601 276 601 223 q 601 169 579 128 q 557 86 520 58 q 483 29 435 14 q 387 0 336 0 l 10 0 z m 361 117 q 380 117 399 126 q 418 135 432 150 q 447 166 456 186 q 465 207 465 230 q 465 261 450 282 q 434 304 407 304 l 211 304 l 172 117 z m 404 413 q 422 413 440 421 q 457 429 471 444 q 485 458 494 478 q 502 499 502 524 q 502 555 487 574 q 472 592 447 592 l 273 592 l 235 413 z"},"K":{"x_min":0,"x_max":643,"ha":643,"o":"m 161 709 l 298 709 l 226 372 l 571 710 l 725 710 l 400 395 l 590 0 l 434 0 l 295 307 l 192 212 l 147 0 l 10 0 z"},"R":{"x_min":0,"x_max":642,"ha":642,"o":"m 10 0 l 161 710 l 461 710 q 501 710 533 694 q 565 677 587 650 q 609 622 620 586 q 632 551 632 514 q 632 475 619 438 q 606 400 584 367 q 561 334 530 308 q 500 282 464 267 l 560 0 l 404 0 l 320 238 l 197 238 l 147 0 z m 382 359 q 402 359 422 370 q 441 382 456 402 q 471 421 480 446 q 490 472 490 500 q 490 538 472 564 q 453 589 426 589 l 272 589 l 223 359 z"},"T":{"x_min":0,"x_max":592,"ha":592,"o":"m 289 589 l 76 589 l 101 710 l 664 710 l 638 589 l 426 589 l 301 0 l 163 0 z"},"P":{"x_min":0,"x_max":601,"ha":601,"o":"m 161 710 l 447 710 q 487 710 519 694 q 551 677 573 650 q 595 622 606 586 q 618 551 618 514 q 618 464 597 414 q 576 365 540 326 q 503 287 454 262 q 406 238 352 238 l 197 238 l 147 0 l 10 0 z m 368 359 q 389 359 408 370 q 428 381 444 400 q 459 420 468 446 q 477 472 477 503 q 477 544 458 566 q 439 589 412 589 l 272 589 l 223 359 z"},"|":{"x_min":0,"x_max":327,"ha":327,"o":"m 112 -130 l 112 775 l 226 775 l 226 -130 z"},"t":{"x_min":0,"x_max":373,"ha":373,"o":"m 156 -9 q 108 -9 78 12 q 47 34 47 83 q 47 103 51 120 l 115 421 l 50 421 l 72 524 l 136 524 l 172 694 l 306 694 l 270 524 l 375 524 l 353 421 l 249 421 l 194 165 q 193 160 192 156 q 192 153 192 149 q 192 130 202 122 q 213 114 230 114 q 250 114 270 120 q 289 127 303 133 l 307 27 q 278 13 237 2 q 196 -9 156 -9 z"},"M":{"x_min":0,"x_max":830,"ha":830,"o":"m 161 710 l 309 710 l 416 306 l 696 710 l 843 710 l 692 0 l 555 0 l 655 470 l 414 120 l 339 120 l 247 470 l 147 0 l 10 0 z"},"g":{"x_min":0,"x_max":611,"ha":611,"o":"m 162 -223 q 80 -223 30 -194 q -21 -166 -50 -114 l 38 -43 q 58 -80 96 -101 q 134 -122 183 -122 q 212 -122 240 -114 q 269 -105 292 -87 q 316 -69 334 -41 q 351 -13 359 25 l 373 91 q 339 46 290 22 q 241 -3 190 -3 q 148 -3 116 14 q 84 30 62 58 q 39 86 28 124 q 16 162 16 206 q 16 271 40 330 q 64 390 104 435 q 145 480 198 506 q 252 533 312 533 q 370 533 408 506 q 445 478 463 432 l 482 524 l 600 524 l 493 25 q 481 -33 450 -79 q 420 -125 376 -157 q 332 -189 278 -206 q 223 -223 162 -223 z m 259 104 q 298 104 336 130 q 373 156 395 192 l 421 317 q 414 363 385 391 q 356 419 318 419 q 285 419 256 402 q 226 385 204 358 q 181 330 168 296 q 155 261 155 226 q 155 200 162 178 q 170 156 184 140 q 197 123 216 114 q 235 104 259 104 z"},"j":{"x_min":0,"x_max":258,"ha":258,"o":"m -83 -196 q -119 -196 -150 -184 q -180 -173 -201 -149 l -125 -58 q -117 -69 -104 -74 q -90 -80 -75 -80 q -51 -80 -30 -62 q -9 -43 -3 -14 l 112 524 l 246 524 l 134 -4 q 125 -46 104 -82 q 83 -117 54 -142 q 24 -168 -11 -182 q -46 -196 -83 -196 z m 156 730 l 290 730 l 261 597 l 127 597 z"},"i":{"x_min":0,"x_max":253,"ha":253,"o":"m 107 524 l 241 524 l 130 0 l -4 0 z m 151 730 l 285 730 l 257 597 l 123 597 z"},"y":{"x_min":0,"x_max":520,"ha":520,"o":"m -44 -126 q -14 -123 8 -119 q 29 -115 46 -106 q 62 -98 76 -84 q 90 -71 105 -50 l 134 -11 l 47 524 l 184 524 l 229 116 l 263 172 q 294 223 317 268 q 340 312 358 354 q 376 396 389 438 q 402 479 413 524 l 543 524 q 529 476 514 434 q 499 392 476 345 q 453 298 420 240 q 386 183 337 103 l 257 -26 q 222 -82 190 -120 q 157 -159 124 -183 q 90 -207 53 -218 q 16 -228 -28 -229 z"},"@":{"x_min":0,"x_max":813,"ha":813,"o":"m 578 44 q 605 44 628 69 q 650 94 666 132 q 683 169 692 214 q 701 258 701 297 q 701 349 684 395 q 668 441 636 475 q 604 509 558 529 q 511 549 451 549 q 377 549 310 519 q 242 489 190 437 q 139 385 108 315 q 77 245 77 164 q 77 107 93 60 q 109 13 139 -21 q 169 -55 212 -74 q 256 -92 311 -92 q 350 -92 386 -82 q 422 -73 464 -54 l 470 -106 q 428 -126 385 -136 q 342 -146 300 -146 q 237 -146 186 -124 q 134 -102 97 -62 q 60 -23 40 33 q 20 89 20 158 q 20 254 58 336 q 96 417 158 476 q 220 536 300 570 q 381 603 465 603 q 533 603 588 580 q 642 558 680 519 q 718 480 738 427 q 758 374 758 313 q 758 265 745 208 q 732 150 706 100 q 681 51 642 18 q 604 -16 553 -16 q 521 -16 500 0 q 479 15 479 50 q 479 55 479 59 q 479 63 480 67 q 443 33 403 15 q 363 -3 321 -3 q 284 -3 254 11 q 225 25 204 50 q 183 74 172 108 q 161 142 161 181 q 161 236 182 287 q 202 338 236 377 q 271 416 316 440 q 361 463 409 463 q 460 463 492 438 q 524 414 535 376 l 549 450 l 617 450 l 550 115 q 548 107 547 98 q 546 89 546 82 q 546 44 578 44 z m 350 64 q 395 64 430 93 q 466 122 484 166 l 504 293 q 494 338 468 362 q 441 387 405 387 q 376 387 347 372 q 318 357 294 330 q 271 304 256 268 q 242 233 242 193 q 242 138 271 101 q 300 64 350 64 z"},".":{"x_min":0,"x_max":224,"ha":224,"o":"m -6 0 l 25 144 l 135 144 l 104 0 z"},"p":{"x_min":0,"x_max":612,"ha":612,"o":"m 107 524 l 224 524 l 205 434 q 243 480 292 506 q 340 533 397 533 q 439 533 473 516 q 507 500 530 470 q 554 441 566 402 q 579 363 579 318 q 579 253 556 194 q 533 135 494 90 q 455 44 404 17 q 352 -10 296 -10 q 239 -10 201 18 q 163 45 149 92 l 84 -213 l -50 -213 z m 276 104 q 308 104 338 120 q 367 137 390 164 q 412 191 426 226 q 439 260 439 296 q 439 349 411 384 q 383 419 335 419 q 317 419 298 412 q 279 406 261 394 q 243 382 227 366 q 211 350 200 331 l 173 208 q 181 163 209 134 q 237 104 276 104 z"},"X":{"x_min":0,"x_max":619,"ha":619,"o":"m 247 350 l 85 710 l 235 710 l 341 446 l 559 710 l 708 710 l 393 350 l 549 0 l 400 0 l 300 254 l 92 0 l -58 0 z"},"*":{"x_min":0,"x_max":337,"ha":337,"o":"m 120 520 l 179 591 l 117 613 l 147 671 l 209 640 l 221 717 l 292 717 l 271 640 l 346 671 l 351 613 l 280 591 l 310 520 l 251 486 l 224 561 l 164 486 z"},"Y":{"x_min":0,"x_max":619,"ha":619,"o":"m 225 250 l 81 710 l 231 710 l 319 368 l 555 710 l 704 710 l 361 248 l 309 0 l 172 0 z"},"c":{"x_min":0,"x_max":542,"ha":542,"o":"m 228 -10 q 176 -10 136 8 q 96 25 69 55 q 42 85 28 125 q 15 165 15 210 q 15 272 40 330 q 64 389 108 434 q 151 479 212 506 q 272 533 343 533 q 426 533 476 496 q 525 459 541 399 l 403 359 q 393 388 371 404 q 349 419 317 419 q 286 419 256 404 q 227 390 204 364 q 182 338 168 302 q 154 267 154 226 q 154 172 180 138 q 207 104 251 104 q 283 104 314 122 q 346 140 363 166 l 485 126 q 446 66 379 28 q 312 -10 228 -10 z"},"!":{"x_min":0,"x_max":290,"ha":290,"o":"m 71 267 l 166 717 l 300 717 l 205 267 z m 14 0 l 46 151 l 180 151 l 148 0 z"},"/":{"x_min":0,"x_max":692,"ha":692,"o":"m 745 710 l 121 0 l -27 0 l 597 710 z"},"[":{"x_min":0,"x_max":302,"ha":302,"o":"m 1 -40 l 167 740 l 351 740 l 329 633 l 268 633 l 148 67 l 209 67 l 186 -40 z"},"6":{"x_min":0,"x_max":592,"ha":592,"o":"m 236 -10 q 143 -10 93 52 q 43 115 43 224 q 43 325 70 414 q 96 504 144 570 q 191 637 258 676 q 324 715 404 715 q 467 715 515 686 q 563 657 589 603 l 495 519 q 480 557 449 578 q 418 599 377 599 q 316 599 268 546 q 220 493 197 396 q 225 432 265 453 q 305 474 351 474 q 394 474 430 459 q 465 444 490 418 q 515 392 528 356 q 542 321 542 280 q 542 221 516 168 q 491 116 448 76 q 406 37 351 14 q 296 -10 236 -10 z m 261 103 q 288 103 315 116 q 342 129 364 151 q 385 173 398 202 q 411 230 411 261 q 411 306 385 336 q 359 367 317 367 q 289 367 262 354 q 235 342 214 321 q 193 300 180 272 q 167 244 167 213 q 167 167 193 135 q 219 103 261 103 z"},"r":{"x_min":0,"x_max":378,"ha":378,"o":"m 107 524 l 230 524 l 206 412 q 244 466 291 498 q 338 529 385 529 q 395 529 400 528 q 405 528 409 527 l 384 408 q 327 407 276 384 q 226 362 197 317 l 130 0 l -4 0 z"},"2":{"x_min":0,"x_max":545,"ha":545,"o":"m -26 0 q -16 45 -2 82 q 13 118 36 149 q 60 180 94 207 q 129 234 179 259 q 225 283 260 300 q 296 317 320 332 q 343 348 355 364 q 367 381 367 404 q 367 429 349 446 q 331 464 296 464 q 252 464 216 440 q 179 416 148 387 l 84 486 q 100 500 127 516 q 154 533 188 548 q 222 562 262 572 q 302 581 345 581 q 431 581 475 542 q 519 504 519 442 q 519 401 504 370 q 489 338 465 314 q 441 289 412 270 q 382 252 354 237 q 336 228 314 216 q 293 204 272 190 q 251 175 232 158 q 213 140 200 121 l 463 121 l 437 0 l -26 0 z"},"{":{"x_min":0,"x_max":308,"ha":308,"o":"m 281 633 l 238 429 q 233 409 220 392 q 207 374 189 360 q 198 349 204 336 q 210 323 210 307 q 210 302 210 298 q 209 295 208 291 l 163 76 l 215 76 l 192 -31 l 41 -31 q 36 -31 30 -27 q 25 -23 25 -12 q 25 -5 26 -1 l 78 247 q 79 251 80 254 q 80 258 80 263 q 80 283 70 297 q 59 311 44 314 l 64 408 q 74 408 84 414 q 95 420 104 430 q 112 440 118 451 q 125 462 127 473 l 177 710 q 181 729 190 734 q 200 740 205 740 l 356 740 l 333 633 z"},"9":{"x_min":0,"x_max":574,"ha":574,"o":"m 170 -154 q 107 -154 60 -125 q 12 -96 -15 -42 l 79 42 q 94 4 125 -17 q 156 -38 197 -38 q 258 -38 306 15 q 354 68 377 165 q 349 129 309 108 q 269 87 223 87 q 180 87 145 102 q 110 117 85 143 q 60 169 46 204 q 33 240 33 281 q 33 339 58 392 q 83 445 126 484 q 168 524 223 548 q 278 571 338 571 q 431 571 481 508 q 531 446 531 337 q 531 236 504 146 q 478 57 430 -10 q 383 -76 316 -115 q 250 -154 170 -154 z m 257 194 q 285 194 312 206 q 339 219 360 240 q 381 261 394 289 q 407 317 407 348 q 407 394 381 426 q 355 458 313 458 q 286 458 259 445 q 232 432 210 410 q 189 388 176 360 q 163 331 163 300 q 163 255 189 224 q 215 194 257 194 z"}," ":{"x_min":0,"x_max":236,"ha":236,"o":""},"I":{"x_min":0,"x_max":285,"ha":285,"o":"m 161 709 l 298 709 l 147 0 l 10 0 z"},"H":{"x_min":0,"x_max":718,"ha":718,"o":"m 161 710 l 298 710 l 237 423 l 533 423 l 594 710 l 731 710 l 580 0 l 443 0 l 507 303 l 211 303 l 147 0 l 10 0 z"},"4":{"x_min":0,"x_max":553,"ha":553,"o":"m 238 22 l -35 22 l -9 141 l 398 571 l 489 571 l 398 142 l 482 142 l 456 22 l 372 22 l 341 -127 l 207 -127 z m 279 142 l 327 368 l 125 142 z"},"~":{"x_min":0,"x_max":546,"ha":546,"o":"m 41 228 q 42 237 51 258 q 60 280 78 302 q 97 325 124 342 q 152 360 191 360 q 218 360 239 352 q 260 343 279 333 q 298 323 316 314 q 335 306 357 306 q 377 306 391 314 q 405 321 414 330 q 422 339 426 348 q 430 356 430 358 l 503 358 q 503 353 494 332 q 485 311 466 288 q 447 265 418 246 q 389 228 349 228 q 323 228 302 236 q 280 244 261 254 q 242 264 224 272 q 205 280 184 280 q 164 280 150 272 q 137 264 129 254 q 121 245 118 237 q 115 229 115 228 l 41 228 z"},"D":{"x_min":0,"x_max":692,"ha":692,"o":"m 161 710 l 408 710 q 477 710 528 688 q 578 667 611 630 q 644 593 660 543 q 676 493 676 435 q 676 341 644 262 q 613 182 556 124 q 500 66 424 33 q 347 0 257 0 l 10 0 z m 282 121 q 339 121 386 145 q 432 169 465 210 q 498 250 516 303 q 534 356 534 415 q 534 493 496 541 q 457 589 382 589 l 272 589 l 173 121 z"},"^":{"x_min":0,"x_max":589,"ha":589,"o":"m 48 303 l 246 710 l 358 710 l 555 303 l 445 303 l 302 597 l 156 303 z"},"0":{"x_min":0,"x_max":594,"ha":594,"o":"m 231 -10 q 187 -10 152 8 q 116 25 92 56 q 67 87 54 130 q 40 173 40 224 q 40 301 66 369 q 93 437 138 488 q 182 538 240 568 q 297 597 360 597 q 404 597 440 580 q 475 562 500 531 q 524 500 538 456 q 551 413 551 362 q 551 284 524 216 q 498 149 454 98 q 409 48 351 19 q 293 -10 231 -10 z m 257 113 q 288 113 316 132 q 344 150 366 182 q 388 215 401 258 q 414 300 414 348 q 414 404 393 439 q 372 474 334 474 q 302 474 273 455 q 244 436 222 404 q 201 371 188 328 q 175 286 175 238 q 175 182 196 148 q 218 113 257 113 z"},"F":{"x_min":0,"x_max":556,"ha":556,"o":"m 161 710 l 615 710 l 589 589 l 272 589 l 234 406 l 496 406 l 472 294 l 210 294 l 147 0 l 10 0 z"},"`":{"x_min":0,"x_max":246,"ha":246,"o":"m 60 730 l 183 730 l 209 611 l 116 593 z"},"k":{"x_min":0,"x_max":560,"ha":560,"o":"m 151 730 l 284 730 l 212 390 q 254 453 308 492 q 361 531 426 531 q 481 531 508 501 q 535 471 535 417 q 535 352 496 296 q 458 241 384 205 l 482 0 l 340 0 l 238 237 q 323 254 369 292 q 415 330 415 373 q 415 396 402 407 q 389 418 369 418 q 343 418 316 404 q 288 390 262 365 q 237 340 215 307 q 193 274 179 237 l 129 0 l -4 0 z"},"u":{"x_min":0,"x_max":595,"ha":595,"o":"m 145 -10 q 22 -10 22 118 q 22 135 24 154 q 27 174 32 196 l 102 524 l 235 524 l 172 225 q 169 210 167 198 q 165 186 165 175 q 165 104 225 104 q 260 104 298 128 q 337 151 369 199 l 438 524 l 572 524 l 493 154 q 492 149 492 144 q 491 140 491 136 q 491 115 515 114 l 491 0 q 473 -3 460 -5 q 446 -7 435 -7 q 400 -7 380 7 q 361 21 361 50 q 361 58 362 68 q 363 78 368 98 q 323 44 266 17 q 208 -10 145 -10 z"},"]":{"x_min":0,"x_max":302,"ha":302,"o":"m -29 -40 l -6 67 l 55 67 l 175 633 l 114 633 l 137 740 l 322 740 l 157 -40 z"},"U":{"x_min":0,"x_max":720,"ha":720,"o":"m 295 -5 q 231 -5 186 14 q 142 32 114 64 q 86 97 74 140 q 61 184 61 235 q 61 290 74 348 l 151 710 l 288 710 l 211 348 q 206 325 204 302 q 201 280 201 259 q 201 229 207 203 q 213 177 228 158 q 242 139 264 128 q 287 117 320 117 q 365 117 400 137 q 435 157 460 189 q 486 221 503 262 q 520 304 529 348 l 606 710 l 743 710 l 666 348 q 651 275 620 211 q 589 147 543 99 q 497 51 435 23 q 373 -5 295 -5 z"},"o":{"x_min":0,"x_max":586,"ha":586,"o":"m 227 -10 q 174 -10 134 8 q 95 25 68 55 q 42 85 28 124 q 15 164 15 208 q 15 270 40 328 q 64 387 108 432 q 151 478 211 506 q 271 533 342 533 q 394 533 434 516 q 473 498 500 468 q 527 439 540 399 q 554 359 554 314 q 554 252 530 194 q 505 136 462 90 q 418 45 358 18 q 298 -10 227 -10 z m 251 104 q 282 104 312 120 q 341 135 364 161 q 387 187 401 222 q 415 258 415 298 q 415 352 389 386 q 363 419 318 419 q 287 419 258 404 q 228 388 205 362 q 182 335 168 300 q 154 265 154 225 q 154 171 180 138 q 206 104 251 104 z"},"N":{"x_min":0,"x_max":733,"ha":733,"o":"m 161 710 l 268 710 l 510 244 l 609 709 l 746 709 l 595 0 l 484 0 l 243 455 l 147 0 l 10 0 z"},"+":{"x_min":0,"x_max":427,"ha":427,"o":"m 386 409 l 386 301 l 283 301 l 283 188 l 163 188 l 163 301 l 59 301 l 59 409 l 163 409 l 163 522 l 283 522 l 283 409 z"},"G":{"x_min":0,"x_max":697,"ha":697,"o":"m 494 80 q 443 36 394 16 q 344 -5 291 -5 q 234 -5 188 18 q 141 40 108 79 q 74 118 56 172 q 37 225 37 287 q 37 373 72 450 q 107 528 165 587 q 223 646 298 680 q 373 715 453 715 q 548 715 608 673 q 667 631 687 560 l 568 484 q 554 537 516 565 q 477 593 423 593 q 373 593 329 568 q 285 544 251 504 q 217 463 198 410 q 178 358 178 302 q 178 263 188 229 q 199 195 218 170 q 238 145 266 131 q 294 117 329 117 q 425 117 522 214 l 533 264 l 398 264 l 420 365 l 669 365 l 591 0 l 477 0 z"},"q":{"x_min":0,"x_max":611,"ha":611,"o":"m 183 -10 q 143 -10 112 6 q 81 23 60 52 q 38 80 26 118 q 15 157 15 202 q 15 270 40 330 q 65 390 106 435 q 148 480 202 506 q 256 533 313 533 q 370 533 408 506 q 446 478 463 433 l 482 524 l 599 524 l 477 -52 q 476 -57 476 -61 q 475 -65 475 -69 q 475 -91 504 -92 l 480 -206 q 463 -209 444 -210 q 424 -212 408 -212 q 372 -212 349 -193 q 326 -174 326 -141 q 326 -136 326 -131 q 327 -126 328 -121 l 373 92 q 335 41 286 16 q 238 -10 183 -10 z m 257 104 q 296 104 330 128 q 365 152 394 190 l 421 314 q 419 336 410 355 q 402 374 388 388 q 375 403 358 411 q 340 419 321 419 q 289 419 259 402 q 229 386 206 359 q 183 332 169 297 q 155 262 155 225 q 155 173 182 138 q 209 104 257 104 z"},"d":{"x_min":0,"x_max":624,"ha":624,"o":"m 201 -10 q 157 -10 122 6 q 88 23 64 52 q 40 81 28 120 q 15 160 15 205 q 15 270 38 330 q 62 389 102 434 q 141 479 193 506 q 245 533 302 533 q 356 533 394 505 q 432 477 446 432 l 510 730 l 644 730 l 522 154 q 519 143 519 136 q 519 115 543 114 l 519 0 q 501 -3 488 -5 q 474 -7 464 -7 q 429 -7 408 7 q 388 21 388 50 q 388 58 390 68 q 391 77 394 91 q 356 41 304 16 q 253 -10 201 -10 z m 261 104 q 278 104 298 110 q 317 117 335 129 q 353 141 369 157 q 385 173 396 192 l 422 317 q 416 361 387 390 q 358 419 320 419 q 288 419 258 402 q 228 386 206 358 q 183 331 170 296 q 156 262 156 226 q 156 174 184 139 q 212 104 261 104 z"},"1":{"x_min":0,"x_max":478,"ha":478,"o":"m 25 121 l 160 121 l 225 424 q 214 412 193 400 q 172 387 148 376 q 123 365 98 358 q 74 351 55 351 l 82 476 q 99 476 126 488 q 153 499 180 515 q 207 531 228 546 q 250 562 256 571 l 393 571 l 297 121 l 418 121 l 393 0 l 0 0 z"},"5":{"x_min":0,"x_max":533,"ha":533,"o":"m 154 -149 q 81 -149 29 -116 q -23 -83 -41 -26 l 53 54 q 71 15 104 -8 q 138 -31 180 -31 q 209 -31 234 -20 q 260 -9 280 10 q 299 30 310 56 q 321 82 321 113 q 321 154 298 179 q 276 204 238 204 q 208 204 179 189 q 150 174 130 148 l 13 148 q 21 168 35 203 q 49 238 66 280 q 82 321 100 366 q 117 410 132 450 q 148 490 161 522 q 174 554 181 571 l 514 571 l 488 449 l 252 449 l 194 290 q 206 303 228 311 q 251 319 282 319 q 323 319 356 306 q 389 292 412 268 q 436 244 448 210 q 461 177 461 137 q 461 75 436 22 q 412 -30 370 -68 q 328 -106 272 -128 q 216 -149 154 -149 z"}}}
